<svg width="48" height="48" viewBox="0 0 48 48" fill="none" xmlns="http://www.w3.org/2000/svg">
<path d="M7.82 34.362C7.44 34.362 7.06 34.222 6.76 33.922C5.40983 32.5762 4.33854 30.9771 3.60753 29.2165C2.87651 27.4559 2.50014 25.5683 2.5 23.662C2.5 15.642 9 9.12199 17 9.12199L29.14 9.16199L26.96 7.08199C26.8173 6.94593 26.703 6.78293 26.6237 6.60242C26.5443 6.42191 26.5016 6.22747 26.4979 6.03033C26.4942 5.8332 26.5295 5.63728 26.602 5.45391C26.6745 5.27054 26.7825 5.10334 26.92 4.96199C27.5 4.36199 28.44 4.34199 29.04 4.92199L33.92 9.60199C34.36 10.022 34.5 10.682 34.28 11.242C34.06 11.802 33.5 12.182 32.88 12.182L17 12.142C10.66 12.142 5.5 17.322 5.5 23.682C5.5 26.742 6.7 29.642 8.88 31.822C9.46 32.402 9.46 33.362 8.88 33.942C8.58 34.222 8.2 34.362 7.82 34.362ZM20 43.5C19.6121 43.4997 19.2393 43.3492 18.96 43.08L14.08 38.4C13.8655 38.1922 13.717 37.9259 13.653 37.6342C13.589 37.3426 13.6123 37.0385 13.72 36.76C13.94 36.2 14.5 35.82 15.12 35.82L31.02 35.86C37.36 35.86 42.52 30.68 42.52 24.32C42.52 21.26 41.32 18.36 39.14 16.18C38.861 15.8977 38.7046 15.5169 38.7046 15.12C38.7046 14.7231 38.861 14.3423 39.14 14.06C39.72 13.48 40.68 13.48 41.26 14.06C42.6102 15.4058 43.6815 17.0048 44.4125 18.7655C45.1435 20.5261 45.5199 22.4136 45.52 24.32C45.52 32.34 39.02 38.86 31.02 38.86L18.88 38.82L21.06 40.9C21.66 41.48 21.68 42.42 21.1 43.02C20.78 43.34 20.4 43.5 20 43.5Z" fill="#143F6B"/>
<path d="M18 31H30C33.84 31 37 27.86 37 24C37 20.16 33.86 17 30 17H18C16.1451 17.0053 14.3677 17.7445 13.0561 19.0561C11.7445 20.3677 11.0053 22.1451 11 24C11 27.86 14.14 31 18 31Z" fill="#143F6B"/>
</svg>
